<?xml version="1.0" standalone="no"?>
<!DOCTYPE svg PUBLIC "-//W3C//DTD SVG 20010904//EN"
 "http://www.w3.org/TR/2001/REC-SVG-20010904/DTD/svg10.dtd">
<svg version="1.0" xmlns="http://www.w3.org/2000/svg"
 width="1600.000000pt" height="1600.000000pt" viewBox="0 0 1600.000000 1600.000000"
 preserveAspectRatio="xMidYMid meet">
<metadata>
Created by potrace 1.11, written by Peter Selinger 2001-2013
</metadata>
<g transform="translate(0.000000,1600.000000) scale(0.100000,-0.100000)"
fill="#000000" stroke="none">
<path d="M7775 11055 c-611 -108 -1115 -590 -1366 -1309 -21 -59 -40 -110 -42
-113 -3 -2 -54 -21 -113 -42 -626 -219 -1100 -655 -1257 -1156 -54 -174 -62
-228 -62 -430 0 -203 10 -274 62 -439 156 -502 648 -953 1266 -1161 54 -18
101 -35 103 -38 3 -3 22 -54 43 -113 242 -692 721 -1169 1306 -1299 114 -26
369 -31 500 -10 450 70 855 359 1141 813 77 122 175 325 224 467 23 66 45 126
49 133 3 7 53 29 111 48 604 206 1077 629 1248 1114 66 190 77 255 76 485 0
202 -2 214 -31 326 -71 268 -192 485 -388 696 -217 236 -564 452 -908 568 -54
18 -101 35 -103 38 -3 3 -22 54 -43 113 -48 137 -118 295 -178 399 -282 492
-663 795 -1133 900 -104 23 -397 29 -505 10z m469 -529 c256 -76 487 -263 662
-532 42 -65 134 -234 134 -246 0 -2 -124 -3 -276 -3 l-275 1 -47 60 c-75 97
-159 170 -251 216 -83 43 -85 43 -190 43 -99 0 -110 -2 -175 -33 -265 -125
-469 -465 -547 -909 -23 -129 -39 -473 -23 -473 6 0 30 21 54 46 256 263 658
449 1130 521 145 22 520 24 655 4 268 -40 487 -103 691 -200 383 -183 642
-455 741 -778 24 -79 27 -103 27 -243 0 -140 -3 -164 -27 -243 -31 -100 -81
-205 -140 -292 -53 -78 -207 -237 -223 -231 -8 3 -11 0 -8 -8 7 -19 -14 -30
-31 -16 -10 8 -15 8 -21 -1 -4 -8 -3 -9 4 -5 7 4 12 2 12 -4 0 -7 -6 -10 -12
-7 -7 2 -12 10 -10 16 1 7 -2 20 -8 31 -7 12 -7 21 0 25 14 9 12 62 -2 69 -9
4 -9 8 -2 11 7 4 8 24 3 63 -5 31 -11 98 -14 147 -3 50 -7 101 -10 114 -2 14
-5 49 -6 78 -1 30 -6 56 -11 59 -5 3 -4 12 3 20 6 8 8 14 3 14 -5 0 -2 5 6 10
11 7 11 10 2 10 -8 0 -10 5 -5 13 19 30 27 140 13 196 -6 27 -13 57 -15 67 -2
11 -4 19 -5 19 -2 0 -11 38 -12 53 -1 6 -5 12 -9 12 -4 0 -37 36 -74 80 -195
234 -550 395 -967 440 -115 12 -338 13 -338 2 0 -4 18 -26 41 -47 390 -377
606 -1076 535 -1730 -52 -485 -223 -892 -491 -1174 -154 -162 -308 -261 -492
-318 -79 -24 -103 -27 -243 -27 -140 0 -164 3 -243 27 -308 95 -580 344 -756
696 -23 44 -41 82 -41 83 0 2 124 3 275 3 l276 -1 58 -75 c74 -94 155 -162
251 -208 72 -34 80 -36 181 -36 104 0 107 1 191 42 280 139 496 547 548 1035
12 115 13 338 2 338 -4 0 -24 -16 -43 -36 -18 -20 -70 -66 -114 -103 -263
-221 -603 -363 -1025 -428 -163 -25 -529 -24 -695 1 -711 109 -1240 478 -1391
972 -25 81 -28 103 -28 244 0 141 3 163 28 244 67 220 198 403 414 578 27 22
78 36 68 19 -4 -6 -12 -9 -17 -6 -5 4 -9 1 -9 -4 0 -6 5 -11 10 -11 6 0 10 -5
10 -11 0 -5 -3 -8 -7 -6 -5 3 -8 -14 -8 -36 0 -63 -15 -307 -21 -352 -2 -22
-13 -160 -24 -307 -10 -147 -21 -272 -25 -278 -4 -6 24 -24 67 -44 52 -24 82
-45 103 -72 160 -210 468 -369 842 -435 117 -20 435 -38 467 -26 12 5 3 18
-40 59 -257 242 -448 656 -521 1128 -26 172 -24 539 5 715 122 747 514 1270
1043 1390 103 23 302 14 413 -19z"/>
<path d="M7920 8499 c-139 -27 -305 -160 -374 -299 -48 -99 -63 -180 -48 -262
38 -208 234 -403 440 -439 286 -50 616 280 564 564 -29 155 -155 318 -302 390
-107 53 -182 65 -280 46z"/>
<path d="M10050 7816 c0 -2 7 -9 15 -16 13 -11 14 -10 9 4 -5 14 -24 23 -24
12z"/>
<path d="M10095 7259 c-6 -8 -4 -10 5 -4 10 6 12 4 6 -11 -6 -15 -5 -17 5 -6
9 9 10 15 2 23 -8 8 -13 7 -18 -2z"/>
</g>
</svg>
